<?xml version="1.0" encoding="utf-8"?>
<!-- Generator: Adobe Illustrator 19.0.1, SVG Export Plug-In . SVG Version: 6.00 Build 0)  -->
<svg version="1.0" id="Layer_1" xmlns="http://www.w3.org/2000/svg" xmlns:xlink="http://www.w3.org/1999/xlink" x="0px" y="0px"
	 width="394px" height="91.7px" viewBox="176 -26.7 394 91.7" enable-background="new 176 -26.7 394 91.7" xml:space="preserve">
<g>
	<g>
		<g>
			<g>
				<defs>
					<rect id="SVGID_1_" x="149" y="-52.2" width="433.9" height="142.8"/>
				</defs>
				<clipPath id="SVGID_2_">
					<use xlink:href="#SVGID_1_"  overflow="visible"/>
				</clipPath>
				<path clip-path="url(#SVGID_2_)" fill="#F15A22" d="M197.4-5.2c0.3,0,0.6,0,0.9,0c0.7-9.1,7-16.6,15.3-19.3h-28
					c-4.9,0-8.9,4-8.9,8.9V6.3C181-0.6,188.7-5.2,197.4-5.2"/>
			</g>
		</g>
	</g>
	<g>
		<g>
			<g>
				<defs>
					<rect id="SVGID_3_" x="149" y="-52.2" width="433.9" height="142.8"/>
				</defs>
				<clipPath id="SVGID_4_">
					<use xlink:href="#SVGID_3_"  overflow="visible"/>
				</clipPath>
				<path clip-path="url(#SVGID_4_)" fill="#F15A22" d="M243-5.4c8.9,0,16.8,4.8,21.1,11.9v-22.1c0-4.9-4-8.9-8.9-8.9h-28
					c8.3,2.7,14.5,10.2,15.3,19.2C242.8-5.4,242.9-5.4,243-5.4"/>
			</g>
		</g>
	</g>
	<g>
		<g>
			<g>
				<defs>
					<rect id="SVGID_5_" x="149" y="-52.2" width="433.9" height="142.8"/>
				</defs>
				<clipPath id="SVGID_6_">
					<use xlink:href="#SVGID_5_"  overflow="visible"/>
				</clipPath>
				<path clip-path="url(#SVGID_6_)" fill="#F15A22" d="M243,43.8c-0.1,0-0.3,0-0.4,0c-0.8,8.9-7,16.4-15.3,19h28
					c4.9,0,8.9-4,8.9-8.9V32C259.8,39.2,252,43.8,243,43.8"/>
			</g>
		</g>
	</g>
	<g>
		<g>
			<g>
				<defs>
					<rect id="SVGID_7_" x="149" y="-52.2" width="433.9" height="142.8"/>
				</defs>
				<clipPath id="SVGID_8_">
					<use xlink:href="#SVGID_7_"  overflow="visible"/>
				</clipPath>
				<path clip-path="url(#SVGID_8_)" fill="#F15A22" d="M198.4,43.6c-0.3,0-0.6,0-1,0c-8.7,0-16.4-4.6-20.7-11.5V54
					c0,4.9,4,8.9,8.9,8.9h28.1C205.3,60.2,199.1,52.7,198.4,43.6"/>
			</g>
		</g>
	</g>
	<g>
		<g>
			<g>
				<defs>
					<rect id="SVGID_9_" x="149" y="-52.2" width="433.9" height="142.8"/>
				</defs>
				<clipPath id="SVGID_10_">
					<use xlink:href="#SVGID_9_"  overflow="visible"/>
				</clipPath>
				<path clip-path="url(#SVGID_10_)" fill="#F15A22" d="M228.9,38.8c0.2-0.2,0.6-0.6,0.6-0.6c0.6-0.5,1.4-0.8,2.2-0.7
					c0.7,0.1,1.5,0.4,2.1,0.8c0.4,0.3,0.9,0.2,1.3-0.1l1-1c1,0.4,2.1,0.7,3.2,0.9c1.2,0.2,2.4,0.3,3.6,0.3
					c10.6,0,19.2-8.6,19.2-19.2S253.6,0.1,243,0.1c-1.3,0-2.5,0.1-3.7,0.4c-0.2,1.1-0.5,2.1-0.9,3.2l1,1c0.4,0.4,0.5,0.8,0.2,1.3
					c-0.4,0.6-0.7,1.4-0.8,2.1c-0.1,0.8,0.2,1.6,0.7,2.2c0,0,0.4,0.4,0.6,0.6c3.1-1.1,6.8-0.4,9.3,2.1c3.5,3.5,3.5,9.1,0,12.6
					s-9.1,3.5-12.6,0c-2.5-2.5-3.2-6.1-2.1-9.2c-0.2-0.2-0.6-0.6-0.6-0.7c-0.6-0.5-1.4-0.8-2.2-0.7c-0.7,0.1-1.5,0.4-2.1,0.8
					c-0.4,0.3-0.9,0.2-1.3-0.1l-1-1c-1,0.4-2.1,0.7-3.3,1c-0.2,1.2-0.4,2.5-0.4,3.7c0,1.3,0.1,2.5,0.4,3.7c0.2,1.1,0.5,2.2,1,3.3
					l-1,1c-0.4,0.4-0.5,0.8-0.2,1.3c0.4,0.6,0.7,1.4,0.8,2.1c0.1,0.8-0.2,1.6-0.7,2.2c0,0-0.4,0.5-0.7,0.6c-3.1-1.1-6.7-0.4-9.2,2.1
					c-3.5,3.5-3.5,9.1,0,12.6s9.1,3.5,12.6,0C229.3,45.6,230,42,228.9,38.8"/>
			</g>
		</g>
	</g>
	<g>
		<g>
			<g>
				<defs>
					<rect id="SVGID_11_" x="149" y="-52.2" width="433.9" height="142.8"/>
				</defs>
				<clipPath id="SVGID_12_">
					<use xlink:href="#SVGID_11_"  overflow="visible"/>
				</clipPath>
				<path clip-path="url(#SVGID_12_)" fill="#F15A22" d="M211.9-0.4c-0.2,0.2-0.6,0.6-0.6,0.6c-0.6,0.5-1.4,0.8-2.2,0.7
					c-0.7-0.1-1.5-0.4-2.1-0.8c-0.4-0.3-0.9-0.2-1.3,0.2l-1,1c-1-0.4-2.1-0.7-3.2-0.9C200.3,0.2,199,0,197.8,0
					c-10.6,0-19.2,8.6-19.2,19.2s8.6,19.2,19.2,19.2c1.3,0,2.6-0.1,3.8-0.4c0.2-1.1,0.5-2.2,0.9-3.2l-1-1c-0.4-0.4-0.5-0.8-0.2-1.3
					c0.4-0.6,0.7-1.4,0.8-2.1c0.1-0.8-0.2-1.6-0.7-2.2c0,0-0.4-0.4-0.6-0.6c-3.1,1.1-6.8,0.4-9.3-2.1c-3.5-3.5-3.5-9.1,0-12.6
					s9.1-3.5,12.6,0c2.5,2.5,3.2,6.1,2.1,9.2c0.2,0.2,0.6,0.6,0.6,0.7c0.6,0.5,1.4,0.8,2.2,0.7c0.7-0.1,1.5-0.3,2.1-0.8
					c0.4-0.3,0.9-0.2,1.3,0.1l1,1c1-0.4,2.1-0.7,3.2-0.9c0.2-1.2,0.4-2.4,0.4-3.7c0-1.3-0.1-2.6-0.4-3.8c-0.2-1.1-0.5-2.2-0.9-3.2
					l1-1c0.4-0.4,0.5-0.8,0.2-1.3c-0.4-0.6-0.7-1.4-0.8-2.1c-0.1-0.8,0.2-1.6,0.7-2.2c0,0,0.4-0.5,0.7-0.6c3.1,1.1,6.7,0.4,9.2-2.1
					c3.5-3.5,3.5-9.1,0-12.6s-9.1-3.5-12.6,0C211.5-7.1,210.8-3.5,211.9-0.4"/>
			</g>
		</g>
	</g>
	<g>
		<g>
			<g>
				<defs>
					<rect id="SVGID_13_" x="149" y="-52.2" width="433.9" height="142.8"/>
				</defs>
				<clipPath id="SVGID_14_">
					<use xlink:href="#SVGID_13_"  overflow="visible"/>
				</clipPath>
				<path clip-path="url(#SVGID_14_)" fill="#F15A22" d="M438.5-10.9H406V6h6.2v28.8c0,3.1-0.1,6.1-1.8,8.3
					c-1.9,2.4-4.5,2.9-6.3,2.9c-2.9,0-5.3-1.2-6.8-3.4c-1.4-2.1-1.5-4.7-1.5-7.8V6h6.2v-16.9h-31.6v7.5l0,0V-3
					c-3.7-6.8-9.9-12.9-16.2-16.7c-6.7-4-14.6-6.4-23-6.4c-24.7,0-44.8,20-44.8,44.8c0,15.1,7.4,28.4,18.8,36.5
					c7.7,5.8,17.4,9.1,26.8,9.1c18.7,0,36.3-12.6,41.9-30.1c0,0,0.4-1.3,0.5-1.7c0.1-0.4,0.4-1.6,0.4-1.6h-21.4c0,0-0.2,0.5-0.3,0.6
					c-0.1,0.2-0.3,0.7-0.3,0.7c-4.5,7-12.3,11.2-20.9,11.2c-13.2,0-24-10.9-24-24.3c0-14.2,10.2-24.5,24.2-24.5
					c8.2,0,16.4,4.5,20.4,11.2l0.5,1h23.9v29.4c0,7,0.9,14.4,7.7,21c4.9,4.8,11.3,7.1,19.6,7.1c8.4,0,15.2-2.6,20.1-7.8
					c6.2-6.4,7-13.4,7-19.9V6h7.3v-16.9H438.5z"/>
			</g>
		</g>
	</g>
	<g>
		<g>
			<g>
				<defs>
					<rect id="SVGID_15_" x="149" y="-52.2" width="433.9" height="142.8"/>
				</defs>
				<clipPath id="SVGID_16_">
					<use xlink:href="#SVGID_15_"  overflow="visible"/>
				</clipPath>
				<path clip-path="url(#SVGID_16_)" fill="#F15A22" d="M555.2,16.5v-27.4h-59.4V5.7c-1.5-4.1-4-7.7-7.4-10.6
					c-6.4-5.5-13.5-6-19.7-6h-26.1V46h-7.2v16.9h26.3V39l17.5,23.9H499V46h-9.2l-6.7-8.5c8.7-3.2,13.9-12.2,14.4-21h14.7V6.6h3.9V46
					h-7.4v16.9h33.8V46H535V6.7h3.9v9.9h16.3V16.5z M475.1,23c-2.6,2-5.9,2.1-9.5,2.1h-4V6.7h5.9c3.7,0,5.7,0.1,7.7,1.7
					s3.3,4.3,3.3,7.2C478.5,18.6,477.3,21.3,475.1,23"/>
			</g>
		</g>
	</g>
	<g>
		<g>
			<g>
				<defs>
					<rect id="SVGID_17_" x="149" y="-52.2" width="433.9" height="142.8"/>
				</defs>
				<clipPath id="SVGID_18_">
					<use xlink:href="#SVGID_17_"  overflow="visible"/>
				</clipPath>
				<polygon clip-path="url(#SVGID_18_)" fill="#F15A22" points="563.3,-10.8 563.3,-10.1 561.5,-10.1 561.5,-5.3 560.8,-5.3 
					560.8,-10.1 558.8,-10.1 558.8,-10.8 				"/>
			</g>
		</g>
	</g>
	<g>
		<g>
			<g>
				<defs>
					<rect id="SVGID_19_" x="149" y="-52.2" width="433.9" height="142.8"/>
				</defs>
				<clipPath id="SVGID_20_">
					<use xlink:href="#SVGID_19_"  overflow="visible"/>
				</clipPath>
				<path clip-path="url(#SVGID_20_)" fill="#F15A22" d="M564-10.8h1.1l1.6,4.7l1.6-4.7h1.1v5.5h-0.7v-3.3c0-0.1,0-0.3,0-0.6
					s0-0.5,0-0.8l-1.6,4.6h-0.7l-1.6-4.6v0.2c0,0.1,0,0.3,0,0.6s0,0.5,0,0.6v3.3H564V-10.8z"/>
			</g>
		</g>
	</g>
</g>
</svg>
